<?xml version="1.0" encoding="UTF-8"?>
<svg width="6px" height="83px" viewBox="0 0 6 83" version="1.1" xmlns="http://www.w3.org/2000/svg" xmlns:xlink="http://www.w3.org/1999/xlink">
    <title>path72</title>
    <g id="Page-1" stroke="none" stroke-width="1" fill="none" fill-rule="evenodd">
        <g id="GrandStaff" transform="translate(0, -2.416)" fill="#000000" fill-rule="nonzero">
            <path d="M4.93150579,31.1830571 C4.93150579,24.6824358 2.39103311,18.3312541 2.39103311,12.129512 C2.39103311,8.76712166 3.13823096,5.6288907 5.60398386,3.1631378 C5.67870364,3.08841802 5.67870364,2.93897845 5.67870364,2.86425866 C5.67870364,2.64009931 5.52926407,2.41593996 5.30510472,2.41593996 C5.23038493,2.41593996 5.08094536,2.49065974 5.00622558,2.56537953 C1.71855505,5.92776984 0.597758278,10.3362371 0.597758278,15.0435836 C0.597758278,21.6936444 3.28767053,28.1942657 3.28767053,34.4707276 C3.28767053,37.8331179 2.4657529,40.9713489 0.0747197848,43.4371018 C-3.45648439e-16,43.5118216 -3.45648439e-16,43.5118216 -3.45648439e-16,43.5865414 C-3.45648439e-16,43.6612611 -3.45648439e-16,43.6612611 0.0747197848,43.7359809 C2.4657529,46.2017338 3.28767053,49.3399648 3.28767053,52.7023551 C3.28767053,58.978817 0.597758278,65.4794383 0.597758278,72.1294991 C0.597758278,76.8368456 1.71855505,81.2453129 5.00622558,84.6077032 C5.08094536,84.682423 5.23038493,84.7571428 5.30510472,84.7571428 C5.52926407,84.7571428 5.67870364,84.5329834 5.67870364,84.308824 C5.67870364,84.2341043 5.67870364,84.0846647 5.60398386,84.0099449 C3.13823096,81.544192 2.39103311,78.405961 2.39103311,75.0435707 C2.39103311,68.8418286 4.93150579,62.4906469 4.93150579,55.9900256 C4.93150579,51.357399 3.81070902,46.9489317 0.597758278,43.5865414 C3.81070902,40.224151 4.93150579,35.8156837 4.93150579,31.1830571 Z" id="path72" transform="translate(2.8394, 43.5865) scale(-1, 1) rotate(-180) translate(-2.8394, -43.5865)"></path>
        </g>
    </g>
</svg>