<?xml version="1.0" encoding="UTF-8"?>
<svg width="60px" height="200px" viewBox="0 0 60 200" version="1.1" xmlns="http://www.w3.org/2000/svg" xmlns:xlink="http://www.w3.org/1999/xlink">
    <title>Path</title>
    <g id="Page-1" stroke="none" stroke-width="1" fill="none" fill-rule="evenodd">
        <g id="vector-musical-notes" transform="translate(-5945.000000, -1290.000000)" fill="#1A1919">
            <g id="Group-689" transform="translate(5945.386120, 601.297000)">
                <path d="M43.1948803,834.683 C41.4538803,823.863 39.4138803,811.143 37.3438803,798.443 C51.8548803,799.714 59.9648803,826.254 43.1948803,834.683 Z M37.4648803,836.633 C6.4248803,842.844 4.6348803,811.224 9.7148803,794.023 C12.6548803,784.073 20.9338803,776.603 29.0738803,767.004 C30.0338803,772.703 31.0738803,779.134 32.1438803,785.924 C11.7338803,792.853 11.5648803,825.733 30.4248803,828.813 C21.4738803,821.793 19.4738803,803.304 31.9938803,799.103 C32.7148803,798.863 33.4248803,798.703 34.1348803,798.594 C36.1138803,811.424 38.1238803,824.653 39.8438803,836.033 C39.0938803,836.264 38.2948803,836.464 37.4648803,836.633 Z M37.5338803,705.304 C39.3348803,705.304 42.9338803,707.993 42.9338803,714.683 C42.9338803,725.633 36.5338803,736.613 28.6948803,747.584 C24.7348803,719.183 33.4838803,705.304 37.5338803,705.304 Z M35.5138803,785.033 C35.3848803,785.063 35.2638803,785.094 35.1438803,785.123 C33.9038803,777.674 32.6838803,770.504 31.5448803,764.004 C36.5848803,757.693 41.3548803,750.363 44.4938803,740.873 C53.5938803,713.433 40.1348803,688.893 36.6838803,688.893 C25.4138803,688.893 20.3548803,718.683 26.2238803,750.974 C15.4648803,765.563 3.0738803,780.094 0.723880301,794.424 C-3.3761197,819.443 10.0138803,845.584 39.0238803,839.914 C39.4938803,839.824 39.9448803,839.714 40.3848803,839.603 C42.0138803,850.324 43.3438803,859.033 44.1048803,863.594 C45.9738803,874.804 40.7348803,884.004 31.7738803,884.474 C28.5238803,884.643 25.4648803,883.313 23.3938803,880.014 C28.2038803,881.834 33.2148803,877.733 33.6438803,868.674 C33.9138803,862.793 32.0738803,856.873 24.5638803,855.983 C18.7438803,855.283 12.2438803,860.983 13.2338803,871.183 C14.0448803,879.603 19.0938803,887.824 31.2148803,888.123 C43.3238803,888.424 50.6548803,878.304 47.6238803,861.643 C46.9248803,857.793 45.5538803,849.313 43.8038803,838.483 C69.3438803,828.084 62.0448803,780.273 35.5138803,785.033 L35.5138803,785.033 Z" id="Fill-634"></path>
            </g>
        </g>
    </g>
</svg>